<?xml version="1.0"?><svg fill="currentColor" xmlns="http://www.w3.org/2000/svg"  viewBox="0 0 50 50" width="50px" height="50px">    <path d="M 6 4 C 4.9 4 4 4.9 4 6 L 4 44 C 4 45.1 4.9 46 6 46 L 44 46 C 45.1 46 46 45.1 46 44 L 46 6 C 46 4.9 45.1 4 44 4 L 6 4 z M 17.929688 14 L 20.650391 14 L 25.449219 36 L 23.009766 36 L 21.619141 29.570312 L 16.820312 29.570312 L 15.400391 36 L 13 36 L 17.929688 14 z M 19.230469 16.439453 C 18.970469 18.069453 18.650078 19.930391 18.330078 21.400391 L 17.230469 27 L 21.320312 27 L 20.189453 21.369141 C 19.869453 19.829141 19.580313 18.039453 19.320312 16.439453 L 19.230469 16.439453 z M 32.519531 20 C 36.859531 20 38 24.620312 38 27.070312 L 38 28.070312 L 29 28.070312 C 29 29.280313 29.190625 31.460781 30.390625 32.800781 C 31.120625 33.610781 32.099922 34 33.419922 34 C 34.939922 34 36.550547 33.240469 36.560547 33.230469 L 37.429688 35.029297 C 37.349688 35.069297 35.409922 36 33.419922 36 C 31.529922 36 30.010391 35.370859 28.900391 34.130859 C 26.680391 31.650859 26.989063 27.579766 27.039062 27.009766 C 27.059062 24.559766 28.219531 20 32.519531 20 z M 32.519531 22 C 30.029531 22 29.319141 24.590312 29.119141 26.070312 L 35.919922 26.070312 C 35.719922 24.590312 35.019531 22 32.519531 22 z"/></svg>